<svg width="23" height="25" viewBox="0 0 23 25" fill="none" xmlns="http://www.w3.org/2000/svg"> 
<g clip-path="url(#clip0_8_57)"> 
<g clip-path="url(#clip1_8_57)"> 
<path d="M25.8911 4.14923V20.67C25.8911 21.0808 25.728 21.4747 25.4375 21.7652C25.147 22.0556 24.7531 22.2188 24.3423 22.2188C23.9316 22.2188 23.5376 22.0556 23.2471 21.7652C22.9567 21.4747 22.7935 21.0808 22.7935 20.67V4.14923C22.7935 3.73846 22.9567 3.34451 23.2471 3.05405C23.5376 2.76359 23.9316 2.60041 24.3423 2.60041C24.7531 2.60041 25.147 2.76359 25.4375 3.05405C25.728 3.34451 25.8911 3.73846 25.8911 4.14923ZM30.5376 2.60041C30.1268 2.60041 29.7329 2.76359 29.4424 3.05405C29.152 3.34451 28.9888 3.73846 28.9888 4.14923V20.67C28.9888 21.0808 29.152 21.4747 29.4424 21.7652C29.7329 22.0556 30.1268 22.2188 30.5376 22.2188C30.9484 22.2188 31.3423 22.0556 31.6328 21.7652C31.9233 21.4747 32.0864 21.0808 32.0864 20.67V4.14923C32.0864 3.73846 31.9233 3.34451 31.6328 3.05405C31.3423 2.76359 30.9484 2.60041 30.5376 2.60041ZM20.7284 12.4096C20.7293 12.8401 20.621 13.2638 20.4135 13.641C20.2061 14.0182 19.9063 14.3366 19.5423 14.5663L8.16101 21.8148C7.77316 22.0626 7.32588 22.2017 6.8659 22.2176C6.40592 22.2335 5.95012 22.1255 5.54613 21.905C5.14214 21.6844 4.8048 21.3594 4.56935 20.964C4.33389 20.5685 4.20897 20.1171 4.20764 19.6568V5.16242C4.20897 4.70216 4.33389 4.25071 4.56935 3.85524C4.8048 3.45977 5.14214 3.13479 5.54613 2.91427C5.95012 2.69375 6.40592 2.58577 6.8659 2.60162C7.32588 2.61748 7.77316 2.75658 8.16101 3.00439L19.5423 10.2529C19.9063 10.4826 20.2061 10.801 20.4135 11.1782C20.621 11.5554 20.7293 11.9791 20.7284 12.4096ZM17.1635 12.4096L7.30528 6.13301V18.6862L17.1635 12.4096Z" fill="#5d5d5d"/> 
</g> 
</g> 
<defs> 
<clipPath id="clip0_8_57"> 
<rect width="23" height="23" fill="white" transform="translate(0 1)"/> 
</clipPath> 
<clipPath id="clip1_8_57"> 
<rect width="19.7475" height="33.0415" fill="white" transform="translate(1.62622 -4.11108)"/> 
</clipPath> 
</defs> 
</svg>
