<svg width="23" height="25" viewBox="0 0 23 25" fill="#5d5d5d" xmlns="http://www.w3.org/2000/svg">
    <g clip-path="url(#clip0_8_284)">
        <path d="M10.1411 20.6699V4.14916C10.1411 3.67209 9.95158 3.21455 9.61424 2.8772C9.27689 2.53986 8.81936 2.35034 8.34228 2.35034C7.8652 2.35034 7.40766 2.53986 7.07032 2.8772C6.73298 3.21455 6.54346 3.67209 6.54346 4.14916V20.6699C6.54346 21.147 6.73298 21.6045 7.07032 21.9419C7.40766 22.2792 7.8652 22.4687 8.34228 22.4687C8.81936 22.4687 9.27689 22.2792 9.61424 21.9419C9.95158 21.6045 10.1411 21.147 10.1411 20.6699ZM14.5376 2.35034C14.0605 2.35034 13.603 2.53986 13.2656 2.8772C12.9283 3.21455 12.7387 3.67209 12.7387 4.14916V20.6699C12.7387 21.147 12.9283 21.6045 13.2656 21.9419C13.603 22.2792 14.0605 22.4687 14.5376 22.4687C15.0146 22.4687 15.4722 22.2792 15.8095 21.9419C16.1469 21.6045 16.3364 21.147 16.3364 20.6699V4.14916C16.3364 3.67209 16.1469 3.21455 15.8095 2.8772C15.4722 2.53986 15.0146 2.35034 14.5376 2.35034Z" fill="#5d5d5d" stroke="#5d5d5d" stroke-width="0.5"/>
    </g>
    <defs>
        <clipPath id="clip0_8_284">
            <rect width="23" height="23" fill="white" transform="translate(0,1)"/>
        </clipPath>
    </defs>
</svg>